<?xml version="1.0" encoding="UTF-8" standalone="no"?>
<svg
   xmlns:dc="http://purl.org/dc/elements/1.1/"
   xmlns:cc="http://creativecommons.org/ns#"
   xmlns:rdf="http://www.w3.org/1999/02/22-rdf-syntax-ns#"
   xmlns:svg="http://www.w3.org/2000/svg"
   xmlns="http://www.w3.org/2000/svg"
   id="svg8"
   version="1.1"
   viewBox="0 0 169.33333 127"
   height="480"
   width="640">
  <defs
     id="defs2" />
  <metadata
     id="metadata5">
    <rdf:RDF>
      <cc:Work
         rdf:about="">
        <dc:format>image/svg+xml</dc:format>
        <dc:type
           rdf:resource="http://purl.org/dc/dcmitype/StillImage" />
        <dc:title></dc:title>
      </cc:Work>
    </rdf:RDF>
  </metadata>


<rect width="100%" height="100%" fill="grey" fill-opacity=".25"/>
    <g
    class="show_during_capture_only "
     transform="translate(0,-169.99998)"
>
    <path
       d="m 67.728329,201.74999 c -0.746032,5.27586 -1.633121,10.5316 -2.368059,15.80909 -0.262586,1.8856 -0.495022,3.77528 -0.742533,5.66292 -0.895338,7.22841 -1.762162,14.46182 -2.322818,21.72529 -0.263012,3.40739 -0.316779,4.76379 -0.49419,8.09274 -0.137471,2.6739 -0.166358,5.35085 -0.180816,8.02752 0,0 -4.874666,2.4639 -4.874666,2.4639 v 0 c 0.164635,-2.7447 0.338947,-5.48881 0.545061,-8.23077 0.809149,-10.0416 2.026117,-20.04074 3.211421,-30.04354 0.779398,-6.94351 1.689743,-13.89086 1.966685,-20.8773 0,0 5.259915,-2.62985 5.259915,-2.62985 z"
       id="path_1"
       style="fill:#000000;stroke:none;stroke-width:1.13208616;stroke-linecap:round;stroke-miterlimit:4;stroke-dasharray:none;stroke-opacity:1">
    <animate attributeName="opacity" values="0;1;1;1;1;1" dur="3s" repeatCount="indefinite" />
    </path>
    <path
       d="m 79.451118,204.54665 c -0.674637,4.77163 -1.35473,9.54126 -2.156744,14.29334 -1.170229,5.67563 -1.919621,11.42081 -2.329283,17.19812 -0.183198,3.33946 -0.255958,6.68597 -0.174355,10.02961 0.08258,2.02039 0.209779,4.03863 0.302858,6.05849 0.06927,1.36062 0.03883,2.72295 0.04715,4.08455 0.03177,1.15613 -0.04333,2.31862 0.05493,3.47213 0,0 -5.224088,2.71618 -5.224088,2.71618 v 0 c -0.0927,-1.1783 0.0307,-2.3666 -0.01091,-3.54756 0.0047,-1.35782 -0.02556,-2.71542 -0.03278,-4.07321 -0.02874,-2.04483 -0.100232,-4.08816 -0.169935,-6.13195 -0.0653,-3.40209 0.115873,-6.80671 0.382263,-10.19758 0.167431,-1.89264 0.266118,-3.18224 0.500452,-5.08661 0.503327,-4.09041 1.238472,-8.14807 1.922363,-12.21056 0.789241,-4.6062 1.504024,-9.25265 1.640787,-13.93082 0,0 5.24735,-2.67413 5.24735,-2.67413 z"
       id="path_2"
       style="fill:#000000;stroke:none;stroke-width:1.13208616;stroke-linecap:round;stroke-miterlimit:4;stroke-dasharray:none;stroke-opacity:1">
        <animate attributeName="opacity" values="0;0;1;1;1;1" dur="3s" repeatCount="indefinite" />
    </path>
    <path
       d="m 90.846687,202.72928 c -0.910607,3.30941 -1.355931,6.71303 -1.744788,10.11534 -0.497082,5.11761 -0.653604,10.25932 -0.701235,15.39814 -0.0034,3.15914 0.03582,6.31813 0.08792,9.47678 0.04878,1.96491 0.02033,3.93049 0.01976,5.89573 -0.04618,2.24948 0.05697,4.4974 0.16241,6.74376 0.08192,1.57771 0.110107,3.15669 0.231555,4.73196 0.17347,1.50317 0.315465,3.00886 0.425716,4.51791 0.0227,0.18194 0.04543,0.36387 0.06813,0.5458 0,0 -5.182836,2.71343 -5.182836,2.71343 v 0 c -0.0189,-0.19514 -0.0378,-0.39029 -0.05669,-0.58542 -0.0672,-1.50853 -0.198128,-3.0124 -0.423112,-4.50627 -0.128268,-1.5979 -0.109434,-3.19773 -0.150062,-4.79975 -0.0705,-2.25252 -0.216836,-4.50278 -0.183689,-6.75755 -0.0034,-1.96904 -0.0367,-3.93822 0.0031,-5.90705 0.04415,-3.20811 0.08793,-6.41636 0.178268,-9.62359 0.127701,-5.15851 0.245142,-10.32057 0.729197,-15.46123 0.09558,-1.14826 0.2848,-3.57835 0.432055,-4.7833 0.211287,-1.72888 0.627017,-3.43136 0.748725,-5.17061 0,0 5.35555,-2.54408 5.35555,-2.54408 z"
       id="path_3"
       style="fill:#000000;stroke:none;stroke-width:1.13208616;stroke-linecap:round;stroke-miterlimit:4;stroke-dasharray:none;stroke-opacity:1">
        <animate attributeName="opacity" values="0;0;0;1;1;1" dur="3s" repeatCount="indefinite" />
    </path>
    <path
       d="m 101.41106,204.58269 c -0.22288,3.78769 -0.19045,7.58486 -0.22054,11.37754 -0.008,4.09309 0.0448,8.18592 0.0904,12.27867 0.016,2.70096 0.0387,5.40177 0.0446,8.10278 0.0104,2.39894 0.003,4.7979 -10e-4,7.19688 0.003,2.07916 0.0251,4.1582 0.0382,6.2373 0.014,1.43698 0.0212,2.87409 0.0258,4.31116 0.0168,1.01347 0.0311,2.02602 0.008,3.03943 0.008,1.82812 0.1212,3.65429 0.20148,5.48036 0,0 -5.145625,2.64317 -5.145625,2.64317 v 0 c -0.03739,-1.8249 -0.10236,-3.64991 -0.26562,-5.46855 -0.02418,-1.01597 -0.0085,-2.03112 0.0075,-3.04714 0.0046,-1.44586 0.01186,-2.89174 0.02585,-4.33752 0.0132,-2.09208 0.03542,-4.18411 0.03823,-6.27625 -0.0043,-2.39859 -0.01159,-4.79716 -0.0012,-7.1957 0.0059,-2.71618 0.02867,-5.43216 0.04462,-8.14828 0.04539,-4.12344 0.09814,-8.24699 0.09038,-12.37077 -0.02973,-3.71769 0.0062,-7.44038 -0.220538,-11.15278 0,0 5.239863,-2.6703 5.239863,-2.6703 z"
       id="path_4"
       style="fill:#000000;stroke:none;stroke-width:1.13208616;stroke-linecap:round;stroke-miterlimit:4;stroke-dasharray:none;stroke-opacity:1">
        <animate attributeName="opacity" values="0;0;0;0;1;1" dur="3s" repeatCount="indefinite" />
    </path>
    <path
       d="m 57.927248,209.2898 c 1.546273,1.53262 3.191521,2.95894 4.777749,4.44888 2.436493,2.37075 4.926814,4.67257 7.583686,6.79454 0.50217,0.39784 1.002476,0.79804 1.506508,1.19351 1.43633,1.12701 1.60038,1.20688 2.992185,2.40264 1.554108,1.3352 3.067086,2.72084 4.612598,4.06636 2.798562,2.29372 5.650381,4.52069 8.450542,6.81265 1.618607,1.33117 3.109726,2.8082 4.751573,4.11227 1.115534,0.88603 1.415179,1.06433 2.583438,1.87127 2.224805,1.43959 4.413069,2.9251 6.549343,4.49284 5.57543,3.73247 8.34554,4.78588 13.30225,8.64109 0.42305,0.33455 0.89731,0.58127 1.37955,0.8154 l -4.90609,3.21509 v 0 c -0.49105,-0.27607 -0.97508,-0.56311 -1.42292,-0.90721 -4.64409,-4.25345 -8.31625,-5.19673 -13.135174,-8.72627 -2.151387,-1.52338 -4.305716,-3.041 -6.486597,-4.52218 -1.076179,-0.75675 -1.580078,-1.0876 -2.613417,-1.90932 -1.64126,-1.30513 -3.128261,-2.78768 -4.754473,-4.11028 -2.752554,-2.33325 -5.580457,-4.57543 -8.349774,-6.88857 -3.001952,-2.59323 -5.941468,-5.26215 -9.144425,-7.61205 -0.489642,-0.38276 -0.987847,-0.7548 -1.468931,-1.14827 -2.165085,-1.77073 -4.131751,-3.76853 -6.209799,-5.63697 -1.630034,-1.47409 -3.315076,-2.88788 -5.008404,-4.28832 z"
       id="path_5"
       style="fill:#000000;stroke:none;stroke-width:1.13208616;stroke-linecap:round;stroke-miterlimit:4;stroke-dasharray:none;stroke-opacity:1">
        <animate attributeName="opacity" values="0;0;0;0;0;1" dur="3s" repeatCount="indefinite" />
    </path>
  </g>

</svg>

