<?xml version="1.0" encoding="UTF-8" standalone="no"?>
<!-- Created with Inkscape (http://www.inkscape.org/) -->

<svg
   xmlns:dc="http://purl.org/dc/elements/1.1/"
   xmlns:cc="http://creativecommons.org/ns#"
   xmlns:rdf="http://www.w3.org/1999/02/22-rdf-syntax-ns#"
   xmlns:svg="http://www.w3.org/2000/svg"
   xmlns="http://www.w3.org/2000/svg"
   xmlns:sodipodi="http://sodipodi.sourceforge.net/DTD/sodipodi-0.dtd"
   xmlns:inkscape="http://www.inkscape.org/namespaces/inkscape"
   width="64"
   height="64"
   viewBox="0 0 16.933333 16.933334"
   version="1.1"
   id="svg8"
   inkscape:version="0.92.2 2405546, 2018-03-11"
   sodipodi:docname="pitally.svg">
  <defs
     id="defs2">
    <inkscape:path-effect
       effect="simplify"
       id="path-effect881"
       is_visible="true"
       steps="1"
       threshold="0.0300827"
       smooth_angles="360"
       helper_size="0"
       simplify_individual_paths="false"
       simplify_just_coalesce="false"
       simplifyindividualpaths="false"
       simplifyJustCoalesce="false" />
    <inkscape:path-effect
       effect="simplify"
       id="path-effect859"
       is_visible="true"
       steps="1"
       threshold="0.0300827"
       smooth_angles="360"
       helper_size="0"
       simplify_individual_paths="false"
       simplify_just_coalesce="false"
       simplifyindividualpaths="false"
       simplifyJustCoalesce="false" />
    <inkscape:path-effect
       effect="simplify"
       id="path-effect855"
       is_visible="true"
       steps="1"
       threshold="0.0300827"
       smooth_angles="360"
       helper_size="0"
       simplify_individual_paths="false"
       simplify_just_coalesce="false"
       simplifyindividualpaths="false"
       simplifyJustCoalesce="false" />
    <inkscape:path-effect
       effect="simplify"
       id="path-effect851"
       is_visible="true"
       steps="1"
       threshold="0.0300827"
       smooth_angles="360"
       helper_size="0"
       simplify_individual_paths="false"
       simplify_just_coalesce="false"
       simplifyindividualpaths="false"
       simplifyJustCoalesce="false" />
    <inkscape:path-effect
       effect="simplify"
       id="path-effect843"
       is_visible="true"
       steps="1"
       threshold="0.0300827"
       smooth_angles="360"
       helper_size="0"
       simplify_individual_paths="false"
       simplify_just_coalesce="false"
       simplifyindividualpaths="false"
       simplifyJustCoalesce="false" />
    <inkscape:path-effect
       effect="simplify"
       id="path-effect839"
       is_visible="true"
       steps="1"
       threshold="0.0300827"
       smooth_angles="360"
       helper_size="0"
       simplify_individual_paths="false"
       simplify_just_coalesce="false"
       simplifyindividualpaths="false"
       simplifyJustCoalesce="false" />
    <inkscape:path-effect
       effect="simplify"
       id="path-effect859-3"
       is_visible="true"
       steps="1"
       threshold="0.0300827"
       smooth_angles="360"
       helper_size="0"
       simplify_individual_paths="false"
       simplify_just_coalesce="false"
       simplifyindividualpaths="false"
       simplifyJustCoalesce="false" />
  </defs>
  <sodipodi:namedview
     id="base"
     pagecolor="#ffffff"
     bordercolor="#666666"
     borderopacity="1.0"
     inkscape:pageopacity="0.0"
     inkscape:pageshadow="2"
     inkscape:zoom="3.959798"
     inkscape:cx="50.19531"
     inkscape:cy="-23.057331"
     inkscape:document-units="mm"
     inkscape:current-layer="g930"
     showgrid="false"
     units="px"
     inkscape:window-width="1920"
     inkscape:window-height="1016"
     inkscape:window-x="0"
     inkscape:window-y="27"
     inkscape:window-maximized="1" />
  <metadata
     id="metadata5">
    <rdf:RDF>
      <cc:Work
         rdf:about="">
        <dc:format>image/svg+xml</dc:format>
        <dc:type
           rdf:resource="http://purl.org/dc/dcmitype/StillImage" />
        <dc:title />
      </cc:Work>
    </rdf:RDF>
  </metadata>
  <g
     inkscape:label="Layer 1"
     inkscape:groupmode="layer"
     id="layer1"
     transform="translate(0,-280.06665)">
    <g
       id="g888"
       transform="matrix(1.3472042,0,0,1.3472042,-0.00563031,-99.682063)">
      <g
         id="g895"
         transform="translate(-0.07014085,-0.24549298)">
        <g
           id="g930"
           transform="matrix(0.09747665,0,0,0.09747665,10.39525,252.17713)">
          <g
             id="g937"
             transform="matrix(1.032258,0,0,1.0324389,3.4155137,-12.057556)">
            <path
               style="fill:#000000;stroke:none;stroke-width:2.22683406;stroke-linecap:round;stroke-miterlimit:4;stroke-dasharray:none;stroke-opacity:1"
               id="path911"
               d="m -76.743686,309.25282 c -1.467586,10.37682 -3.212659,20.71407 -4.658422,31.09407 -0.516558,3.70868 -0.973802,7.42539 -1.460703,11.13808 -1.761302,14.21718 -3.46651,28.44417 -4.569429,42.73031 -0.517393,6.70182 -0.623165,9.36962 -0.972164,15.91716 -0.270433,5.25916 -0.327258,10.52431 -0.3557,15.7889 0,0 -9.589397,4.84612 -9.589397,4.84612 v 0 c 0.323868,-5.3984 0.666774,-10.79563 1.072239,-16.18866 1.591748,-19.75028 3.985757,-39.41705 6.317476,-59.09103 1.533224,-13.6568 3.324048,-27.32118 3.868846,-41.06243 0,0 10.347254,-5.17252 10.347254,-5.17252 z"
               inkscape:connector-curvature="0" />
            <path
               style="fill:#000000;stroke:none;stroke-width:2.22683406;stroke-linecap:round;stroke-miterlimit:4;stroke-dasharray:none;stroke-opacity:1"
               id="path913"
               d="m -53.682726,314.75343 c -1.327137,9.38508 -2.665011,18.76621 -4.242727,28.11281 -2.302063,11.16308 -3.77626,22.46297 -4.582141,33.82604 -0.360387,6.56823 -0.503521,13.15029 -0.342991,19.72671 0.162452,3.97379 0.412674,7.94334 0.59578,11.91612 0.136263,2.67613 0.07638,5.35563 0.09277,8.03368 0.06249,2.27393 -0.08522,4.56036 0.108049,6.82915 0,0 -10.276774,5.34229 -10.276774,5.34229 v 0 c -0.182374,-2.31753 0.06039,-4.65474 -0.02161,-6.9775 0.0092,-2.67064 -0.05027,-5.34079 -0.06447,-8.01138 -0.05653,-4.02185 -0.197168,-8.04078 -0.334293,-12.06059 -0.128451,-6.69139 0.22793,-13.38774 0.751986,-20.05708 0.329366,-3.72253 0.5235,-6.25897 0.984482,-10.00458 0.990142,-8.0452 2.436312,-16.02598 3.781655,-24.01628 1.552586,-9.05969 2.958703,-18.19855 3.227741,-27.39979 0,0 10.322536,-5.2596 10.322536,-5.2596 z"
               inkscape:connector-curvature="0" />
            <path
               style="fill:#000000;stroke:none;stroke-width:2.22683406;stroke-linecap:round;stroke-miterlimit:4;stroke-dasharray:none;stroke-opacity:1"
               id="path915"
               d="m -31.265468,311.17897 c -1.791339,6.50909 -2.667376,13.20347 -3.432332,19.8953 -0.977855,10.06554 -1.285764,20.17849 -1.379462,30.28575 -0.0066,6.21356 0.07048,12.4268 0.172945,18.63939 0.09596,3.86469 0.04,7.73064 0.03888,11.596 -0.09086,4.42437 0.112088,8.84567 0.319492,13.26392 0.16116,3.10311 0.216592,6.20872 0.455512,9.30704 0.341249,2.95649 0.620582,5.91795 0.837466,8.88605 0.04467,0.35783 0.08935,0.71565 0.134026,1.07347 0,0 -10.195628,5.3369 -10.195628,5.3369 v 0 c -0.03717,-0.3838 -0.07435,-0.76761 -0.111524,-1.15141 -0.132195,-2.96705 -0.389757,-5.92492 -0.832343,-8.86315 -0.252334,-3.14281 -0.215274,-6.28942 -0.295199,-9.44037 -0.138678,-4.43035 -0.426558,-8.85626 -0.361354,-13.29106 -0.0065,-3.87278 -0.07219,-7.74585 0.0061,-11.61826 0.08684,-6.30986 0.172976,-12.61997 0.350689,-18.92811 0.251206,-10.14601 0.482241,-20.29896 1.434467,-30.40986 0.188036,-2.25845 0.560258,-7.03806 0.849938,-9.40801 0.415639,-3.40045 1.233462,-6.74895 1.472883,-10.16979 0,0 10.535388,-5.0038 10.535388,-5.0038 z"
               inkscape:connector-curvature="0" />
            <path
               style="fill:#000000;stroke:none;stroke-width:2.22683406;stroke-linecap:round;stroke-miterlimit:4;stroke-dasharray:none;stroke-opacity:1"
               id="path917"
               d="m -10.483328,314.82431 c -0.438452,7.44982 -0.374649,14.91826 -0.433841,22.37789 -0.0157,8.05046 0.08818,16.10044 0.177796,24.15024 0.03147,5.31238 0.07613,10.62446 0.08778,15.93693 0.0205,4.71834 0.0064,9.43673 -0.0023,14.15515 0.0054,4.08938 0.04929,8.17855 0.0752,12.2678 0.02765,2.82634 0.04181,5.6529 0.05086,8.4794 0.03306,1.99332 0.06119,3.98486 0.01487,5.97809 0.01595,3.59561 0.238418,7.18742 0.396342,10.77901 0,0 -10.122425,5.19872 -10.122425,5.19872 v 0 c -0.07354,-3.58931 -0.201367,-7.17881 -0.522525,-10.75581 -0.04756,-1.99825 -0.01667,-3.99487 0.01487,-5.99324 0.0091,-2.84378 0.02329,-5.68762 0.05087,-8.53123 0.02591,-4.1148 0.06966,-8.22951 0.0752,-12.34443 -0.0086,-4.71766 -0.02275,-9.43527 -0.0023,-14.15284 0.01168,-5.34229 0.05639,-10.68419 0.08777,-16.02639 0.08928,-8.11019 0.19306,-16.22057 0.177796,-24.33142 -0.05849,-7.31212 0.01231,-14.63407 -0.433841,-21.93578 0,0 10.307806,-5.25209 10.307806,-5.25209 z"
               inkscape:connector-curvature="0" />
            <path
               sodipodi:nodetypes="ccccccccccccccccccccccccc"
               style="fill:#000000;stroke:none;stroke-width:2.22683406;stroke-linecap:round;stroke-miterlimit:4;stroke-dasharray:none;stroke-opacity:1"
               id="path923"
               d="m -96.024282,324.08248 c 3.041817,3.01443 6.278334,5.81977 9.398744,8.75025 4.793048,4.66293 9.691986,9.19025 14.918557,13.36382 0.987863,0.7825 1.97206,1.56964 2.963587,2.34748 2.825536,2.21662 3.148255,2.37373 5.886201,4.72559 3.057224,2.62613 6.03354,5.35147 9.073858,7.99792 5.505304,4.51138 11.115376,8.89149 16.623828,13.39943 3.184105,2.61821 6.117422,5.52331 9.347249,8.08819 2.194466,1.74268 2.783926,2.09339 5.082115,3.68051 4.376616,2.83146 8.681349,5.75323 12.8838037,8.83673 10.967935,7.34118 16.4172719,9.41308 26.1680553,16.9957 0.832221,0.65799 1.765185,1.14324 2.713838,1.60374 l -9.6512037,6.32359 v 0 c -0.965985,-0.54299 -1.918163,-1.10755 -2.799168,-1.78433 -9.1358002,-8.36587 -16.3596409,-10.22119 -25.8393803,-17.16325 -4.232189,-2.99624 -8.470164,-5.98115 -12.760373,-8.8944 -2.117047,-1.48843 -3.108315,-2.13916 -5.141089,-3.75535 -3.228672,-2.567 -6.153886,-5.48294 -9.352956,-8.0843 -5.414797,-4.58915 -10.977821,-8.99915 -16.425597,-13.54873 -5.905412,-5.10049 -11.688001,-10.34986 -17.988826,-14.97174 -0.963222,-0.75282 -1.943283,-1.48457 -2.889666,-2.25845 -4.259135,-3.48278 -8.127943,-7.41213 -12.21586,-11.08707 -3.206588,-2.89933 -6.521385,-5.68001 -9.852485,-8.43447 z"
               inkscape:connector-curvature="0" />
          </g>
        </g>
      </g>
    </g>
  </g>
</svg>
